<svg width="18" height="22" viewBox="0 0 18 22" fill="none" xmlns="http://www.w3.org/2000/svg">
<path d="M10 12.5858L13.2929 9.29289C13.6834 8.90237 14.3166 8.90237 14.7071 9.29289C15.0976 9.68342 15.0976 10.3166 14.7071 10.7071L9.70711 15.7071C9.31658 16.0976 8.68342 16.0976 8.29289 15.7071L3.29289 10.7071C2.90237 10.3166 2.90237 9.68342 3.29289 9.29289C3.68342 8.90237 4.31658 8.90237 4.70711 9.29289L8 12.5858V2C8 1.44772 8.44772 1 9 1C9.55228 1 10 1.44772 10 2V12.5858Z" fill="#555555" stroke="#555555" stroke-width="0.5"/>
<path d="M15 18C15 17.4477 15.4477 17 16 17C16.5523 17 17 17.4477 17 18V19C17 19.4304 16.7246 19.8126 16.3162 19.9487C14.2075 20.6516 11.7686 21 9 21C6.23141 21 3.79246 20.6516 1.68377 19.9487C1.27543 19.8126 1 19.4304 1 19V18C1 17.4477 1.44772 17 2 17C2.55228 17 3 17.4477 3 18L3 18.0303C3 18.1668 3.09218 18.2861 3.22428 18.3206C3.55286 18.4063 3.81071 18.4695 3.99783 18.5103C5.49173 18.836 7.15904 19 9 19C10.8445 19 12.5147 18.8354 14.0109 18.5084C14.196 18.468 14.451 18.4054 14.7759 18.3206L14.7759 18.3204C14.9079 18.286 15 18.1667 15 18.0303V18Z" fill="#555555" stroke="#555555" stroke-width="0.5"/>
</svg>
