<svg width="18" height="20" viewBox="0 0 18 20" fill="none" xmlns="http://www.w3.org/2000/svg">
<path fill-rule="evenodd" clip-rule="evenodd" d="M11.5714 19.5C11.5714 19.7761 11.7953 20 12.0714 20H17.5C17.7761 20 18 19.7761 18 19.5V9.24509C18 8.53709 17.5824 7.56469 17.0673 7.08176L9.89926 0.361613C9.37817 -0.126919 8.54451 -0.117162 8.02391 0.370909L0.94263 7.00973C0.420448 7.49928 0 8.46328 0 9.16619C0 9.16619 0 9.57084 0 9.77317C0 12.2853 0 17.8134 0 19.501C0 19.7771 0.223858 20 0.5 20H5.92857C6.20471 20 6.42857 19.7761 6.42857 19.5V13C6.42857 12.7239 6.65243 12.5 6.92857 12.5H11.0714C11.3476 12.5 11.5714 12.7239 11.5714 13V19.5Z" fill="#A076F2"/>
</svg>
